<?xml version="1.0" encoding="UTF-8" standalone="no"?>
<svg
   xmlns:dc="http://purl.org/dc/elements/1.1/"
   xmlns:cc="http://creativecommons.org/ns#"
   xmlns:rdf="http://www.w3.org/1999/02/22-rdf-syntax-ns#"
   xmlns:svg="http://www.w3.org/2000/svg"
   xmlns="http://www.w3.org/2000/svg"
   xmlns:xlink="http://www.w3.org/1999/xlink"
   id="svg101"
   viewBox="0 0 784.50652 236.59284"
   height="236.59285pt"
   width="784.50653pt"
   version="1.1">
  <metadata
     id="metadata107">
    <rdf:RDF>
      <cc:Work
         rdf:about="">
        <dc:format>image/svg+xml</dc:format>
        <dc:type
           rdf:resource="http://purl.org/dc/dcmitype/StillImage" />
        <dc:title></dc:title>
      </cc:Work>
    </rdf:RDF>
  </metadata>
  <defs
     id="defs105" />
  <g
     transform="translate(-53.170092,-45.908546)"
     style="enable-background:new"
     id="g99">
    <g
       data-name="Vrstva 1"
       id="Layer-1">
      <path
         style="fill:#ffffff;fill-rule:evenodd"
         id="path2"
         d="m 99.3288,282.7009 4.8583,-210.9954 9.3288,210.8894 c 22.4059,21.57 -33.9933,24.539 -14.1871,0.106"
         transform="matrix(1,0,0,-1,0,345.8268)" />
      <path
         style="fill:#fcdf00;fill-rule:evenodd"
         id="path4"
         d="m 54.0499,261.8008 19.1248,4.7157 -11.2652,-6.2875 c 4.64,-4.6182 16.2936,-2.9203 32.4859,11.5271 37.7938,4.1025 126.6117,-14.6322 16.6626,-44.2973 l -0.3801,-8.5683 c 11.6243,4.0521 26.2052,7.2697 35.299,9.6911 20.4718,5.4499 34.3842,17.5909 32.2534,27.1936 -6.1829,21.7063 -47.4315,23.4938 -85.9306,27.2463 -12.5827,1.5061 -44.8474,-1.057 -38.2498,-21.2207 z m 52.8554,-128.8925 -0.0261,3e-4 c 15.2818,30.7891 -14.6228,37.8876 -27.1548,58.9425 -3.5708,4.3466 -4.4167,21.5504 20.8928,32.1993 l 0.2015,-9.0281 c -10.5792,-5.6508 -15.6966,-13.6513 -4.3469,-24.0619 36.0725,-28.6945 22.7959,-52.5359 10.1117,-65.3496 0.0649,1.8269 0.2821,5.4235 0.3218,7.2975 z m -3.8639,-10.7328 c -1.992,-1.7263 -4.0286,-3.3276 -5.4896,-4.39 1.4221,2.2323 3.49,5.0853 5.3867,8.0719 0.005,-1.2186 0.0674,-2.4454 0.1029,-3.6819 z M 61.6799,272.7771 c 4.0462,0 4.0462,-5.2926 0,-5.2926 -4.0448,0 -4.0448,5.2926 0,5.2926"
         transform="matrix(1,0,0,-1,0,345.8268)" />
      <path
         style="fill:#ffffff;fill-rule:evenodd"
         id="path6"
         d="m 135.3611,144.7846 v 54.8059 c 0.76,0 1.4052,-0.0567 1.9372,-0.1709 0.5318,-0.1137 1.2152,-0.2846 2.0506,-0.5128 1.2155,0.3419 2.1271,0.5508 2.7349,0.6078 0.6077,0.0572 1.4051,0.0759 2.393,0.0759 v -11.622 c 1.4431,2.9625 3.342,5.5451 5.6968,7.7479 3.0387,2.8108 6.1149,4.216 9.2293,4.216 l 3.5322,-0.3419 -1.4813,-9.5712 c -0.6078,0.4561 -1.4052,0.855 -2.3928,1.1968 -0.9873,0.3416 -1.9749,0.5125 -2.9622,0.5125 -3.7981,0 -6.6846,-1.4241 -8.6595,-4.2726 -1.9755,-2.8489 -2.9625,-6.4001 -2.9625,-10.6538 v -32.0176 c -1.3677,0.4558 -2.9248,0.6835 -4.6718,0.6835 -1.5953,0 -3.0764,-0.2277 -4.4439,-0.6835 z m 32.7014,27.1182 c 0,9.1914 2.6206,16.2933 7.8621,21.3069 4.7098,4.4822 10.8621,6.7227 18.4584,6.7227 8.3557,0 14.5848,-3.0575 18.6863,-9.1531 3.0387,-4.5961 4.5581,-9.989 4.5581,-16.1609 l -0.1143,-2.26 h -39.4239 l -0.1137,-2.5067 c 0,-6.0007 1.766,-11.0143 5.2982,-15.0401 3.5323,-4.026 8.4887,-6.0389 14.8694,-6.0389 2.8866,0 5.7161,0.7214 8.4887,2.1645 2.7728,1.4434 5.4884,3.4183 8.1468,5.9253 l -0.228,-5.906 c -2.5826,-2.0129 -5.5641,-3.7032 -8.9441,-5.0516 -3.3806,-1.3485 -6.8556,-2.0319 -10.4258,-2.0319 -8.8115,0 -15.6864,2.9248 -20.6232,8.7732 -4.3299,5.1659 -6.495,11.5844 -6.495,19.2566 z m 40.5635,4.6718 c 0,5.6968 -0.8737,10.1784 -2.64,13.4447 -2.3544,4.4059 -6.2478,6.6087 -11.6597,6.6087 -5.3362,0 -9.5332,-2.2787 -12.5719,-6.8363 -2.5257,-3.7981 -3.7789,-8.204 -3.7789,-13.2171 z m 20.6231,-31.79 v 54.5783 c 0.9117,0 1.8613,-0.057 2.8489,-0.1709 0.9873,-0.1143 1.7472,-0.2092 2.2787,-0.2852 0.6835,0.076 1.3292,0.1709 1.9369,0.2852 0.6078,0.1139 1.2915,0.1709 2.0512,0.1709 v -9.7991 c 1.8229,2.8865 3.7981,5.1653 5.9247,6.8363 3.1147,2.355 6.7986,3.5323 11.0523,3.5323 4.026,0 7.5583,-1.0443 10.597,-3.1334 3.0382,-2.0892 5.0511,-4.7285 6.0389,-7.9189 4.2537,7.3684 10.2164,11.0523 17.8886,11.0523 6.3048,0 10.9574,-1.709 13.9578,-5.127 3.0008,-3.4189 4.5009,-8.8118 4.5009,-16.1799 v -33.8409 l -4.6718,0.4558 -4.4433,-0.4558 v 31.79 c 0,5.8485 -0.8736,10.1407 -2.6206,12.8753 -2.0512,3.1904 -5.4318,4.7857 -10.141,4.7857 -4.4818,0 -7.7859,-1.5387 -9.913,-4.6148 -2.1271,-3.0765 -3.1904,-7.3494 -3.1904,-12.8186 v -32.0176 l -4.4439,0.4558 -4.6718,-0.4558 v 34.9804 c 0,3.8736 -0.6454,6.9503 -1.9369,9.229 -1.9749,3.4943 -5.3929,5.2416 -10.2546,5.2416 -5.1656,0 -8.8495,-1.5194 -11.0523,-4.5581 -1.7473,-2.4304 -2.6206,-5.8867 -2.6206,-10.3686 v -34.5243 l -4.6718,0.4558 z m 90.584,27.1182 c 0,9.1914 2.6206,16.2933 7.8621,21.3069 4.7095,4.4822 10.8621,6.7227 18.4584,6.7227 8.3557,0 14.5848,-3.0575 18.6863,-9.1531 3.0387,-4.5961 4.5581,-9.989 4.5581,-16.1609 l -0.1143,-2.26 h -39.4239 l -0.1137,-2.5067 c 0,-6.0007 1.766,-11.0143 5.2982,-15.0401 3.5323,-4.026 8.4887,-6.0389 14.8695,-6.0389 2.8865,0 5.716,0.7214 8.4886,2.1645 2.7728,1.4434 5.4884,3.4183 8.1468,5.9253 l -0.2279,-5.906 c -2.5827,-2.0129 -5.5642,-3.7032 -8.9442,-5.0516 -3.3806,-1.3485 -6.8556,-2.0319 -10.4261,-2.0319 -8.8112,0 -15.6861,2.9248 -20.6232,8.7732 -4.3296,5.1659 -6.4947,11.5844 -6.4947,19.2566 z m 40.5635,4.6718 c 0,5.6968 -0.8737,10.1784 -2.6399,13.4447 -2.3545,4.4059 -6.2479,6.6087 -11.6598,6.6087 -5.3365,0 -9.5332,-2.2787 -12.5719,-6.8363 -2.5257,-3.7981 -3.7789,-8.204 -3.7789,-13.2171 z m 16.6351,-5.1279 c 0,9.1157 2.5446,16.2939 7.6343,21.5354 4.5578,4.6335 10.1789,6.9503 16.8635,6.9503 3.9498,0 7.5198,-1.0256 10.7102,-3.0762 2.8108,-1.8232 5.2415,-4.4059 7.2924,-7.7485 v 41.3612 c 0.9876,0 1.6903,-0.019 2.1078,-0.057 0.4181,-0.038 1.3485,-0.1709 2.7916,-0.3988 0.9879,0.2279 1.6716,0.3608 2.0511,0.3988 0.3799,0.038 1.1013,0.057 2.1651,0.057 v -85.6843 l -4.8994,0.4558 -4.2162,-0.4558 v 11.1663 c -2.5827,-4.102 -5.3932,-7.1402 -8.4317,-9.1157 -3.0384,-1.9749 -6.7603,-2.9622 -11.1662,-2.9622 -7.8239,0 -13.7489,2.8485 -17.7752,8.5456 -3.418,4.8614 -5.1273,11.2042 -5.1273,19.0281 z m 10.0273,-0.7973 c 0,-8.2035 1.671,-14.205 5.013,-18.0032 2.6589,-3.0381 6.1912,-4.5575 10.5971,-4.5575 5.1653,0 9.2673,2.355 12.3055,7.0648 3.0387,4.7092 4.5575,10.8241 4.5575,18.3444 0,5.3172 -0.9873,9.913 -2.9625,13.7871 -2.7346,5.317 -6.8746,7.9759 -12.4197,7.9759 -6.8363,0 -11.6598,-3.1144 -14.4706,-9.3436 -1.7467,-3.8735 -2.6203,-8.9634 -2.6203,-15.2679 z m 60.8451,-25.8648 v 54.5783 l 4.4436,-0.4561 4.6717,0.4561 v -54.5783 l -4.6717,0.4558 z m 4.4436,79.873 c 1.5953,0 2.9437,-0.5505 4.045,-1.6518 1.1015,-1.1018 1.6523,-2.4877 1.6523,-4.1592 0,-1.5189 -0.5321,-2.8486 -1.5953,-3.9878 -1.0633,-1.1396 -2.431,-1.709 -4.102,-1.709 -1.5951,0 -2.9628,0.5694 -4.1021,1.709 -1.1395,1.1392 -1.709,2.4689 -1.709,3.9878 0,1.5953 0.5695,2.9627 1.709,4.102 1.1393,1.1395 2.507,1.709 4.1021,1.709 z m 21.3074,-40.9048 c 0,4.9374 1.747,8.8685 5.2413,11.793 3.494,2.9242 7.7479,4.3866 12.7613,4.3866 2.8865,0 5.3362,-0.2089 7.3494,-0.6265 2.0131,-0.4178 3.9308,-1.1585 5.754,-2.2218 -1.1395,-2.6589 -2.0132,-5.3175 -2.6209,-7.9764 h -1.1393 c -2.355,4.862 -5.697,7.2924 -10.0267,7.2924 -2.431,0 -4.5958,-0.6077 -6.495,-1.8232 -1.8986,-1.2149 -3.0002,-3.0382 -3.3041,-5.4692 v -2.2788 c 0,-3.9498 2.3551,-6.9502 7.0643,-9.0014 4.026,-1.3671 8.0518,-2.7343 12.0778,-4.1014 2.583,-1.2155 4.5386,-2.7919 5.8683,-4.7291 1.3292,-1.9369 1.9936,-4.3106 1.9936,-7.1214 0,-5.0131 -1.8986,-9.2668 -5.6968,-12.761 -3.7981,-3.4943 -8.8874,-5.2416 -15.2682,-5.2416 -2.431,0 -4.9757,0.3421 -7.6343,1.0253 -2.6586,0.684 -4.8614,1.5956 -6.6087,2.7349 0.7597,2.7343 1.5194,5.5071 2.2788,8.3177 h 0.7977 c 3.5702,-5.6214 8.0521,-8.4317 13.4453,-8.4317 3.1903,0 5.7917,1.0443 7.8049,3.1334 2.0128,2.0892 3.0194,4.4246 3.0194,7.0073 0,3.0387 -0.9873,5.3932 -2.9622,7.0648 -1.5193,1.2909 -4.14,2.4304 -7.8621,3.418 -6.001,1.7473 -9.7229,3.1524 -11.1663,4.2157 -3.1147,2.2787 -4.6715,6.0769 -4.6715,11.3944"
         transform="matrix(1,0,0,-1,0,345.8268)" />
      <path
         style="fill:#fcdf00;fill-rule:evenodd"
         id="path8"
         d="m 133.1796,128.5475 h 704.497 v -8.0002 h -704.497 z"
         transform="matrix(1,0,0,-1,0,345.8268)" />
      <g
         data-name="Corel_OTF"
         id="Layer-2" />
      <symbol
         id="font_0_28">
        <path
           id="path11"
           d="M 0,0 V 0.716 H 0.53000006 V 0.595 H 0.14500001 V 0.43600003 H 0.503 V 0.31500004 H 0.14500001 V 0.12100001 H 0.544 V 0 Z" />
      </symbol>
      <symbol
         id="font_0_35">
        <path
           id="path14"
           d="m 0,0 v 0.716 h 0.305 c 0.076,0 0.13200005,-0.006 0.16600003,-0.019 0.035,-0.013 0.063,-0.036 0.084,-0.069 0.021,-0.033 0.031,-0.07 0.031,-0.11299993 C 0.586,0.462 0.57,0.41700004 0.53900006,0.38200004 0.507,0.347 0.46000005,0.32500003 0.398,0.316 0.429,0.298 0.455,0.278 0.475,0.256 0.495,0.234 0.522,0.195 0.557,0.14 L 0.644,0 H 0.47100003 L 0.368,0.156 C 0.33,0.212 0.305,0.247 0.291,0.261 0.277,0.276 0.263,0.286 0.248,0.291 0.232,0.296 0.208,0.299 0.174,0.299 H 0.145 V 0 H 0 M 0.14500001,0.41300003 H 0.252 c 0.069,0 0.113,0.003 0.13,0.009 0.017,0.006 0.031,0.016 0.04,0.03 0.01,0.015 0.015,0.033 0.015,0.054 0,0.024 -0.006,0.0439999 -0.019,0.0589999 C 0.405,0.57900008 0.387,0.58900007 0.363,0.59300008 0.352,0.59400007 0.316,0.595 0.25800003,0.595 H 0.14500001 Z" />
      </symbol>
      <symbol
         id="font_0_2a">
        <path
           id="path17"
           d="M 0.358,0.27600003 V 0.397 H 0.669 V 0.111 C 0.63900008,0.082 0.595,0.056 0.53800007,0.034 0.48,0.011 0.42200003,0 0.363,0 0.28800003,0 0.22300002,0.016 0.167,0.047 0.11200001,0.079 0.07000001,0.12400001 0.04200001,0.18200001 0.014,0.24100001 0,0.30500005 0,0.37400005 c 0,0.074 0.016,0.14100002 0.04700001,0.19899995 0.03099999,0.0580001 0.077,0.1020001 0.13700001,0.13300005 0.046,0.0239999 0.10299998,0.036 0.17100001,0.036 0.089,0 0.15900005,-0.019 0.20900006,-0.056 C 0.6140001,0.64900007 0.646,0.59700009 0.66,0.531 L 0.51600006,0.504 c -0.01,0.0350001 -0.029,0.0630001 -0.057,0.0840001 -0.027,0.02 -0.062,0.03 -0.104,0.03 -0.063,0 -0.11300001,-0.02 -0.15000001,-0.0600001 -0.037,-0.04 -0.056,-0.1 -0.056,-0.17899995 0,-0.085 0.019,-0.14900005 0.057,-0.19100004 0.037,-0.043 0.087,-0.064 0.148,-0.064 0.03,0 0.06,0.006 0.091,0.018 0.03,0.012 0.056,0.026 0.0780001,0.043 v 0.091 z" />
      </symbol>
      <symbol
         id="font_0_32">
        <path
           id="path20"
           d="m 0,0.367 c 0,0.073 0.011,0.13400007 0.033,0.18400008 0.01600001,0.0359999 0.03800001,0.069 0.06700001,0.098 0.028,0.029 0.059,0.051 0.092,0.065 0.045,0.019 0.096,0.028 0.15499998,0.028 0.10500003,0 0.19000008,-0.033 0.253,-0.098 C 0.66300007,0.578 0.69500008,0.48700006 0.69500008,0.37000004 0.69500008,0.254 0.66400006,0.164 0.6010001,0.09800001 0.53800007,0.033 0.454,0 0.349,0 0.24200003,0 0.157,0.033 0.09400001,0.09800001 0.032,0.163 0,0.252 0,0.367 m 0.149,0.005 c 0,-0.082 0.019,-0.14300005 0.056,-0.18500005 0.038,-0.042 0.086,-0.063 0.14300001,-0.063 0.058,0 0.10499997,0.021 0.14300001,0.062 0.037,0.042 0.0550001,0.10400003 0.0550001,0.18800005 0,0.082 -0.018,0.14299995 -0.0540001,0.18300002 -0.036,0.041 -0.084,0.061 -0.14399997,0.061 -0.059,0 -0.108,-0.02 -0.14400002,-0.061 -0.037,-0.041 -0.055,-0.10300003 -0.055,-0.18500002 z" />
      </symbol>
      <symbol
         id="font_0_3">
        <path
           id="path23"
           d="M 0,0 Z" />
      </symbol>
      <symbol
         id="font_0_46">
        <path
           id="path26"
           d="m 0.48200006,0.37800003 -0.13500002,-0.024 c -0.004,0.027 -0.015,0.047 -0.031,0.061 -0.016,0.013 -0.037,0.02 -0.063,0.02 -0.034,0 -0.061,-0.012 -0.081,-0.035 -0.021,-0.024 -0.031,-0.064 -0.031,-0.11900002 0,-0.062 0.01,-0.10500003 0.031,-0.13100003 0.021,-0.025 0.048,-0.038 0.083,-0.038 0.026,0 0.047,0.008 0.064,0.022 0.017,0.015 0.028,0.041 0.035,0.077 l 0.13499999,-0.023 C 0.47500003,0.126 0.448,0.079 0.40900005,0.048 0.36900003,0.016 0.316,0 0.24900002,0 0.17300001,0 0.113,0.024 0.068,0.07200001 0.023,0.12000001 0,0.186 0,0.27100004 c 0,0.086 0.023,0.15299999 0.068,0.20000002 0.045,0.048 0.106,0.072 0.18300003,0.072 0.063,0 0.11399997,-0.014 0.15100002,-0.041 0.037,-0.027 0.064,-0.068 0.08,-0.12400003 z" />
      </symbol>
      <symbol
         id="font_0_48">
        <path
           id="path29"
           d="M 0.34,0.177 0.477,0.154 C 0.46,0.104 0.432,0.066 0.39400003,0.039 0.356,0.013 0.308,0 0.252,0 0.161,0 0.095,0.03 0.051,0.089 0.017,0.136 0,0.19600001 0,0.26800005 c 0,0.086 0.023,0.15299999 0.067,0.20199999 0.045,0.049 0.102,0.073 0.171,0.073 0.077,0 0.13800003,-0.0250001 0.18200003,-0.076 0.045,-0.051 0.066,-0.13000005 0.064,-0.23500004 H 0.141 C 0.142,0.191 0.153,0.16 0.174,0.137 0.195,0.114 0.222,0.103 0.253,0.103 c 0.021,0 0.039,0.006 0.054,0.018 0.015,0.011 0.026,0.03 0.033,0.056 M 0.348,0.316 C 0.347,0.3560001 0.337,0.386 0.317,0.407 0.298,0.428 0.274,0.438 0.246,0.438 0.216,0.438 0.192,0.427 0.172,0.405 0.153,0.383 0.143,0.354 0.144,0.316 Z" />
      </symbol>
      <symbol
         id="font_0_51">
        <path
           id="path32"
           d="M 0.47400005,0 H 0.337 v 0.26500003 c 0,0.056 -0.003,0.092 -0.009,0.10800001 -0.006,0.017 -0.015,0.029 -0.029,0.038 -0.013,0.01 -0.029,0.014 -0.048,0.014 -0.024,0 -0.045,-0.006 -0.064,-0.019 -0.019,-0.013 -0.032,-0.031 -0.039,-0.052 -0.007,-0.022 -0.011,-0.061 -0.011,-0.11899998 V 0 H 0 v 0.51900008 h 0.127 v -0.076 c 0.046,0.058 0.10300002,0.087 0.17200003,0.087 0.03,0 0.058,-0.005 0.083,-0.0160001 0.026,-0.011 0.045,-0.025 0.057,-0.042 0.013,-0.017 0.022,-0.036 0.027,-0.058 0.006,-0.021 0.008,-0.052 0.008,-0.092 z" />
      </symbol>
      <symbol
         id="font_0_57">
        <path
           id="path35"
           d="M 0.29400004,0.53200009 V 0.42300005 H 0.2 V 0.213 C 0.2,0.17 0.201,0.145 0.203,0.138 0.205,0.131 0.209,0.126 0.215,0.121 0.221,0.116 0.229,0.114 0.238,0.114 c 0.013,0 0.031,0.004 0.056,0.013 L 0.305,0.021 C 0.273,0.007 0.237,0 0.19700001,0 c -0.025,0 -0.047,0.004 -0.067,0.012 -0.02,0.009 -0.034,0.02 -0.043,0.033 C 0.07700001,0.058 0.071,0.07600001 0.067,0.09900001 0.065,0.11500001 0.063,0.147 0.063,0.19600001 V 0.42300005 H 0 V 0.53200009 H 0.063 V 0.63500007 L 0.2,0.716 V 0.53200009 Z" />
      </symbol>
      <symbol
         id="font_0_55">
        <path
           id="path38"
           d="M 0.13700001,0 H 0 v 0.51900008 h 0.127 v -0.074 c 0.022,0.035 0.042,0.058 0.059,0.069 0.018,0.0110001 0.037,0.0160001 0.06,0.0160001 0.031,0 0.0610001,-0.009 0.09,-0.0260001 L 0.294,0.38500011 c -0.024,0.015 -0.045,0.022 -0.065,0.022 -0.019,0 -0.036,-0.005 -0.049,-0.016 -0.013,-0.01 -0.024,-0.029 -0.031,-0.057 -0.008,-0.028 -0.012,-0.086 -0.012,-0.17400002 z" />
      </symbol>
      <symbol
         id="font_0_58">
        <path
           id="path41"
           d="M 0.34500004,0.013 V 0.09100001 C 0.32600004,0.063 0.30100004,0.041 0.27,0.025 0.24000001,0.008 0.20700002,0 0.17300001,0 0.13800001,0 0.107,0.008 0.079,0.023 0.05100001,0.038 0.031,0.06 0.019,0.088 0.006,0.11600001 0,0.154 0,0.20300001 V 0.53200009 H 0.13700003 V 0.293 c 0,-0.073 0.003,-0.118 0.008,-0.13399999 0.005,-0.017 0.014,-0.03 0.027,-0.039 0.014,-0.01 0.031,-0.015 0.051,-0.015 0.024,0 0.045,0.007 0.064,0.019 0.018,0.013 0.031,0.029 0.038,0.048 0.007,0.02 0.01,0.066 0.01,0.14100003 V 0.53200009 H 0.47200007 V 0.013 Z" />
      </symbol>
      <symbol
         id="font_0_50">
        <path
           id="path44"
           d="M 0,0.51900008 H 0.126 V 0.448 c 0.045,0.055 0.099,0.0820001 0.16200003,0.0820001 0.033,0 0.062,-0.007 0.086,-0.02 0.024,-0.014 0.044,-0.035 0.06,-0.0620001 0.023,0.027 0.047,0.048 0.0740001,0.0620001 0.026,0.0129999 0.054,0.02 0.084,0.02 0.038,0 0.07,-0.008 0.097,-0.0230001 0.026,-0.016 0.046,-0.038 0.059,-0.068 0.009,-0.022 0.014,-0.058 0.014,-0.10799996 V 0 H 0.62500008 v 0.296 c 0,0.052 -0.005,0.085 -0.014,0.10000004 -0.013,0.019 -0.032,0.029 -0.059,0.029 -0.019,0 -0.037,-0.006 -0.0540001,-0.017 -0.0169999,-0.012 -0.029,-0.029 -0.037,-0.052 -0.007,-0.023 -0.011,-0.058 -0.011,-0.10699998 V 0 h -0.137 v 0.284 c 0,0.05 -0.002,0.083 -0.007,0.098 -0.005,0.014 -0.013,0.025 -0.023,0.032 -0.01,0.008 -0.024,0.011 -0.042,0.011 -0.021,0 -0.04,-0.006 -0.057,-0.017 -0.017,-0.011 -0.029,-0.028 -0.036,-0.049 -0.007,-0.022 -0.011,-0.057 -0.011,-0.10700004 V 0 H 0 Z" />
      </symbol>
      <symbol
         id="font_0_44">
        <path
           id="path47"
           d="M 0.13800001,0.37200005 0.014,0.39400003 c 0.014,0.051 0.03800001,0.088 0.07200001,0.11299997 0.035,0.024 0.08500001,0.0360001 0.153,0.0360001 0.061,0 0.10700002,-0.007 0.13700002,-0.0220001 0.029,-0.014 0.051,-0.032 0.063,-0.055 0.012,-0.022 0.018,-0.063 0.018,-0.123 L 0.455,0.183 C 0.455,0.138 0.457,0.104 0.462,0.08300001 0.46600003,0.061 0.47400005,0.038 0.486,0.013 H 0.35 C 0.347,0.022 0.342,0.035 0.337,0.053 0.335,0.061 0.333,0.067 0.33200003,0.06900001 0.30900003,0.046 0.284,0.029 0.257,0.017 0.23,0.006 0.202,0 0.172,0 0.119,0 0.07700001,0.015 0.046,0.044 0.015,0.07200001 0,0.109 0,0.153 0,0.183 0.007,0.209 0.021,0.232 0.035,0.255 0.05500001,0.272 0.08,0.284 0.10500001,0.297 0.141,0.3069999 0.18900001,0.316 0.25300001,0.328 0.297,0.34 0.322,0.35 V 0.364 C 0.322,0.391 0.316,0.41 0.303,0.421 0.289,0.432 0.265,0.438 0.229,0.438 0.204,0.438 0.185,0.433 0.171,0.423 0.158,0.414 0.147,0.397 0.138,0.372 M 0.322,0.261 C 0.305,0.255 0.277,0.248 0.239,0.24 0.201,0.232 0.176,0.224 0.164,0.216 0.146,0.203 0.137,0.187 0.137,0.168 0.137,0.149 0.144,0.132 0.159,0.118 0.173,0.104 0.191,0.097 0.213,0.097 c 0.025,0 0.049,0.008 0.071,0.02400001 0.017,0.013 0.028,0.028 0.033,0.046 0.003,0.012 0.005,0.034 0.005,0.067 z" />
      </symbol>
      <symbol
         id="font_0_31">
        <path
           id="path50"
           d="M 0,0 V 0.716 H 0.14000002 L 0.435,0.23600002 V 0.716 H 0.569 V 0 H 0.424 L 0.134,0.47100003 V 0 Z" />
      </symbol>
      <symbol
         id="font_0_47">
        <path
           id="path53"
           d="M 0.507,0.013 H 0.38000003 V 0.089 C 0.359,0.06 0.33400003,0.037 0.305,0.022 0.276,0.007 0.24700001,0 0.218,0 0.15800002,0 0.107,0.024 0.064,0.07200001 0.021,0.12000001 0,0.187 0,0.27400003 c 0,0.088 0.021,0.155 0.06200001,0.20000002 0.042,0.046 0.09400001,0.069 0.157,0.069 0.058,0 0.10899999,-0.024 0.15099999,-0.072 v 0.258 H 0.507 V 0.013 M 0.141,0.28300003 c 0,-0.056 0.008,-0.096 0.023,-0.12100003 0.022,-0.036 0.053,-0.054 0.093,-0.054 0.031,0 0.058,0.014 0.08,0.041 0.022,0.027 0.033,0.067 0.033,0.12000003 0,0.06 -0.011,0.10300002 -0.032,0.13 -0.022,0.026 -0.049,0.039 -0.082,0.039 -0.033,0 -0.06,-0.013 -0.082,-0.039 -0.022,-0.026 -0.033,-0.065 -0.033,-0.116 z" />
      </symbol>
      <use
         height="100%"
         width="100%"
         y="0"
         x="0"
         style="fill:#ffffff"
         id="use56"
         transform="matrix(59.72,0,0,-59.72,134.88227,281.725)"
         xlink:href="#font_0_28" />
      <use
         height="100%"
         width="100%"
         y="0"
         x="0"
         style="fill:#ffffff"
         id="use58"
         transform="matrix(59.72,0,0,-59.72,174.71552,281.725)"
         xlink:href="#font_0_35" />
      <use
         height="100%"
         width="100%"
         y="0"
         x="0"
         style="fill:#ffffff"
         id="use60"
         transform="matrix(59.72,0,0,-59.72,216.34037,282.50138)"
         xlink:href="#font_0_2a" />
      <use
         height="100%"
         width="100%"
         y="0"
         x="0"
         style="fill:#ffffff"
         id="use62"
         transform="matrix(59.72,0,0,-59.72,262.50395,282.50138)"
         xlink:href="#font_0_32" />
      <use
         height="100%"
         width="100%"
         y="0"
         x="0"
         style="fill:#ffffff"
         id="use64"
         transform="matrix(59.72,0,0,-59.72,306.39814,281.725)"
         xlink:href="#font_0_3" />
      <use
         height="100%"
         width="100%"
         y="0"
         x="0"
         style="fill:#ffffff"
         id="use66"
         transform="matrix(59.72,0,0,-59.72,325.50856,282.50138)"
         xlink:href="#font_0_46" />
      <use
         height="100%"
         width="100%"
         y="0"
         x="0"
         style="fill:#ffffff"
         id="use68"
         transform="matrix(59.72,0,0,-59.72,358.11567,282.50138)"
         xlink:href="#font_0_48" />
      <use
         height="100%"
         width="100%"
         y="0"
         x="0"
         style="fill:#ffffff"
         id="use70"
         transform="matrix(59.72,0,0,-59.72,393.58934,281.725)"
         xlink:href="#font_0_51" />
      <use
         height="100%"
         width="100%"
         y="0"
         x="0"
         style="fill:#ffffff"
         id="use72"
         transform="matrix(59.72,0,0,-59.72,426.79368,282.50138)"
         xlink:href="#font_0_57" />
      <use
         height="100%"
         width="100%"
         y="0"
         x="0"
         style="fill:#ffffff"
         id="use74"
         transform="matrix(59.72,0,0,-59.72,449.72615,281.725)"
         xlink:href="#font_0_55" />
      <use
         height="100%"
         width="100%"
         y="0"
         x="0"
         style="fill:#ffffff"
         id="use76"
         transform="matrix(59.72,0,0,-59.72,473.19609,282.50138)"
         xlink:href="#font_0_58" />
      <use
         height="100%"
         width="100%"
         y="0"
         x="0"
         style="fill:#ffffff"
         id="use78"
         transform="matrix(59.72,0,0,-59.72,509.20726,281.725)"
         xlink:href="#font_0_50" />
      <use
         height="100%"
         width="100%"
         y="0"
         x="0"
         style="fill:#ffffff"
         id="use80"
         transform="matrix(59.72,0,0,-59.72,558.5957,281.725)"
         xlink:href="#font_0_3" />
      <use
         height="100%"
         width="100%"
         y="0"
         x="0"
         style="fill:#ffffff"
         id="use82"
         transform="matrix(59.72,0,0,-59.72,577.3478,282.50138)"
         xlink:href="#font_0_44" />
      <use
         height="100%"
         width="100%"
         y="0"
         x="0"
         style="fill:#ffffff"
         id="use84"
         transform="matrix(59.72,0,0,-59.72,608.4022,281.725)"
         xlink:href="#font_0_3" />
      <use
         height="100%"
         width="100%"
         y="0"
         x="0"
         style="fill:#ffffff"
         id="use86"
         transform="matrix(59.72,0,0,-59.72,629.36398,281.725)"
         xlink:href="#font_0_31" />
      <use
         height="100%"
         width="100%"
         y="0"
         x="0"
         style="fill:#ffffff"
         id="use88"
         transform="matrix(59.72,0,0,-59.72,670.27218,282.50138)"
         xlink:href="#font_0_44" />
      <use
         height="100%"
         width="100%"
         y="0"
         x="0"
         style="fill:#ffffff"
         id="use90"
         transform="matrix(59.72,0,0,-59.72,703.77517,282.50138)"
         xlink:href="#font_0_47" />
      <use
         height="100%"
         width="100%"
         y="0"
         x="0"
         style="fill:#ffffff"
         id="use92"
         transform="matrix(59.72,0,0,-59.72,739.96548,282.50138)"
         xlink:href="#font_0_44" />
      <use
         height="100%"
         width="100%"
         y="0"
         x="0"
         style="fill:#ffffff"
         id="use94"
         transform="matrix(59.72,0,0,-59.72,773.52816,282.50138)"
         xlink:href="#font_0_46" />
      <use
         height="100%"
         width="100%"
         y="0"
         x="0"
         style="fill:#ffffff"
         id="use96"
         transform="matrix(59.72,0,0,-59.72,806.13528,282.50138)"
         xlink:href="#font_0_48" />
    </g>
  </g>
</svg>
