<?xml version="1.0" encoding="UTF-8" standalone="no"?>
<svg
   xmlns:dc="http://purl.org/dc/elements/1.1/"
   xmlns:cc="http://creativecommons.org/ns#"
   xmlns:rdf="http://www.w3.org/1999/02/22-rdf-syntax-ns#"
   xmlns:svg="http://www.w3.org/2000/svg"
   xmlns="http://www.w3.org/2000/svg"
   id="svg5335"
   viewBox="0 0 172.32532 94.861652"
   height="94.861649pt"
   width="172.32532pt"
   version="1.1">
  <metadata
     id="metadata5341">
    <rdf:RDF>
      <cc:Work
         rdf:about="">
        <dc:format>image/svg+xml</dc:format>
        <dc:type
           rdf:resource="http://purl.org/dc/dcmitype/StillImage" />
        <dc:title></dc:title>
      </cc:Work>
    </rdf:RDF>
  </metadata>
  <defs
     id="defs5339" />
  <g
     transform="translate(-363.14233,-466.60248)"
     style="enable-background:new"
     id="g5333">
    <g
       data-name="Vrstva 1"
       id="Layer-1">
      <path
         style="fill:#ffffff;fill-rule:evenodd"
         id="path5316"
         d="m 380.1643,334.5452 h 4.1385 l 1.948,8.5702 h -4.1391 z m 6.6707,-8.2778 h -8.6187 l -1.8989,-8.6187 h -8.6188 l 6.6226,29.8981 5.2588,4.1874 h 13.0493 l 3.3115,-4.1874 -3.8469,-17.1402 z m 17.043,4.0904 v 0 l -3.0676,-12.7091 h -8.5703 l 7.742,34.0855 h 5.1199 l 3.6737,-5.804 4.4337,5.804 h 3.962 l 3.3109,-4.1874 -1.899,-8.5702 -5.3078,-4.4314 3.3599,-4.1874 -1.9962,-8.57 -5.2101,-4.1391 h -4.1879 l 2.7754,12.7091 z m 2.7757,12.8067 -0.8283,-4.1879 h 4.1392 l 1.1197,4.1879 z m 26.4892,8.5697 -7.791,-34.0855 h -8.57 l 7.7423,34.0855 z m 12.7083,-11.6379 0.8283,3.0191 h -4.1882 l -1.3629,-5.2103 h 8.6187 l 3.3109,-4.1877 -2.4834,-11.9296 -5.2589,-4.1391 h -13.0498 l -3.3109,4.1391 1.6557,7.4985 h 8.6188 l -0.5845,-3.0189 h 4.1386 l 1.4125,5.2589 h -8.8626 l -3.0676,4.1391 2.5322,11.9296 5.2588,4.1392 h 12.7091 l 3.6037,-4.1392 -1.9479,-7.4987 z m 19.7697,-5.5511 h 4.1386 l 1.9479,8.5702 h -4.1391 z m 6.6708,-8.2778 h -8.6188 l -1.8989,-8.6187 h -8.6188 l 6.6226,29.8981 5.2589,4.1874 h 13.0493 l 3.3117,-4.1874 -3.8472,-17.1402 z m 16.556,-0.0487 h 12.7576 l -1.9477,-8.57 h -17.1887 l -3.3115,4.1391 5.8434,25.8072 5.2103,4.1392 h 2.4835 l 4.2103,-5.4233 3.64,5.4233 h 6.8547 l -1.8989,-8.5697 h -12.7579 l -1.1197,-4.1879 h 13.0501 l -1.9479,-8.57 h -13.0502 z m 30.9206,-8.57 h -12.7579 l -3.3109,4.1391 1.9471,8.6188 h 8.3268 l -0.8277,-4.1392 h 4.3824 l 5.551,25.4668 h 8.6188 l -6.6708,-29.9464 z"
         transform="matrix(1,0,0,-1,0,841.8898)" />
      <path
         style="fill:#a4c611"
         id="path5318"
         d="m 399.9464,297.5182 h 4.1389 l 1.9476,8.57 h -4.1388 z m 6.6708,-8.2778 h -8.6185 l -1.8992,-8.6187 h -8.6187 l 6.6223,29.8976 5.2588,4.1876 h 13.0498 l 3.3112,-4.1876 -3.8466,-17.14 z"
         transform="matrix(1,0,0,-1,0,841.8898)" />
      <path
         style="fill:#a4c611"
         id="path5320"
         d="m 421.9554,289.1917 h 4.4312 l 3.8956,16.9452 h -4.4311 z m -6.1353,-8.57 -3.3111,4.1389 5.8433,25.8074 5.2588,4.1389 h 12.7577 l 3.3111,-4.1389 -5.7946,-25.8074 -5.2588,-4.1389 z"
         transform="matrix(1,0,0,-1,0,841.8898)" />
      <path
         style="fill:#a4c611"
         id="path5322"
         d="m 442.796,314.7069 h 21.6199 l -1.9965,-8.6187 h -6.33 l -5.7946,-25.4665 h -8.57 l 5.7946,25.4665 h -6.6711 z"
         transform="matrix(1,0,0,-1,0,841.8898)" />
      <path
         style="fill:#a4c611"
         id="path5324"
         d="m 469.4312,289.1917 h 12.7576 l -1.9477,-8.57 h -17.1887 l -3.3111,4.1389 5.843,25.8074 5.2104,4.1389 h 17.1887 l -1.8992,-8.57 h -12.7576 l -1.12,-4.1876 h 13.0499 l -1.9477,-8.57 h -13.0499 z"
         transform="matrix(1,0,0,-1,0,841.8898)" />
      <path
         style="fill:#a4c611"
         id="path5326"
         d="m 483.3088,280.6217 6.6223,29.9463 5.2588,4.1389 h 8.6188 l 3.3111,-4.1389 5.2588,4.1389 h 8.6188 l 3.3111,-4.1389 -6.671,-29.9463 h -8.57 l 5.8433,25.5152 h -4.4311 l -5.8433,-25.5152 h -8.6185 l 5.8431,25.5152 h -4.1389 l -5.8433,-25.5152 z"
         transform="matrix(1,0,0,-1,0,841.8898)" />
      <path
         style="fill:none;stroke:#a4c611;stroke-width:0.56690001;stroke-linecap:round;stroke-linejoin:miter;stroke-miterlimit:22.92558479"
         id="path5328"
         d="m 180.2588,177.9401 h 17.6873 l 3.5623,-5.7501 3.3126,5.7812 h 7.3749 l 3.5626,6.4063 3.3749,-6.3751 h 21.7817 l 3.9373,-5.5936 3.3753,5.6563 15.4063,-0.1562"
         stroke-miterlimit="22.925585"
         transform="matrix(2.02889,0,0,-2.02889,0,841.8898)" />
      <path
         style="fill:#ffffff;fill-rule:evenodd"
         id="path5330"
         d="m 371.9602,311.0321 c -0.2979,-1.7127 -2.806,-25.0884 -5.0275,-23.8437 -0.5187,0.2903 -1.2039,0.3422 -1.6288,4.2551 -0.6568,6.0526 5.3226,17.2605 6.6563,19.5886 z m 0.616,3.8528 c -13.2902,-21.899 -11.6544,-34.3196 -0.6044,-34.4579 12.6771,-0.1588 15.2771,13.9184 0.6044,34.4579"
         transform="matrix(1,0,0,-1,0,841.8898)" />
    </g>
  </g>
</svg>
