<?xml version="1.0" standalone="no"?>
<!DOCTYPE svg PUBLIC "-//W3C//DTD SVG 20010904//EN"
 "http://www.w3.org/TR/2001/REC-SVG-20010904/DTD/svg10.dtd">
<svg version="1.0" xmlns="http://www.w3.org/2000/svg"
 width="700.000000pt" height="700.000000pt" viewBox="0 0 700.000000 700.000000"
 preserveAspectRatio="xMidYMid meet">
<metadata>
Created by potrace 1.11, written by Peter Selinger 2001-2013
</metadata>
<g transform="translate(0.000000,700.000000) scale(0.100000,-0.100000)"
fill="#000000" stroke="none">
<path d="M0 3500 l0 -3500 3500 0 3500 0 0 3500 0 3500 -3500 0 -3500 0 0
-3500z m3504 2452 c538 -780 883 -1406 1121 -2037 259 -686 347 -1309 254
-1795 -140 -727 -667 -1131 -1477 -1130 -360 1 -638 80 -859 247 -484 364
-588 1139 -293 2178 198 696 563 1498 1095 2407 61 103 112 188 115 188 3 -1
23 -26 44 -58z"/>
<path d="M3296 5318 c-106 -194 -336 -664 -429 -878 -349 -803 -507 -1420
-468 -1827 23 -249 73 -469 124 -544 32 -47 103 -99 137 -99 30 0 76 44 106
102 134 259 309 1143 479 2423 70 531 122 940 120 943 -1 1 -32 -53 -69 -120z"/>
</g>
</svg>
